<mxfile host="app.diagrams.net" modified="2023-04-26T12:42:21.805Z" agent="Mozilla/5.0 (Windows NT 10.0; Win64; x64; rv:109.0) Gecko/20100101 Firefox/112.0" etag="ThFsMyVBVx2_jZy3CxMF" version="21.2.2" type="device">
  <diagram name="Page-1" id="az5t7joONhsyQv9RkL3W">
    <mxGraphModel dx="1434" dy="746" grid="1" gridSize="10" guides="1" tooltips="1" connect="1" arrows="1" fold="1" page="1" pageScale="1" pageWidth="827" pageHeight="1169" math="0" shadow="0">
      <root>
        <mxCell id="0" />
        <mxCell id="1" parent="0" />
        <mxCell id="KkFiw05WbOxU5-AoPjwO-26" style="edgeStyle=orthogonalEdgeStyle;rounded=0;orthogonalLoop=1;jettySize=auto;html=1;exitX=0;exitY=0.5;exitDx=0;exitDy=0;" edge="1" parent="1" source="KkFiw05WbOxU5-AoPjwO-1" target="KkFiw05WbOxU5-AoPjwO-3">
          <mxGeometry relative="1" as="geometry" />
        </mxCell>
        <mxCell id="KkFiw05WbOxU5-AoPjwO-1" value="&lt;div&gt;Rear&lt;/div&gt;&lt;div&gt;line detector&lt;/div&gt;&lt;div&gt;&lt;br&gt;&lt;/div&gt;&lt;div&gt;STM32F446RE&lt;/div&gt;" style="rounded=1;whiteSpace=wrap;html=1;fillColor=#fff2cc;strokeColor=#d6b656;" vertex="1" parent="1">
          <mxGeometry x="520" y="230" width="120" height="60" as="geometry" />
        </mxCell>
        <mxCell id="KkFiw05WbOxU5-AoPjwO-24" style="edgeStyle=orthogonalEdgeStyle;rounded=0;orthogonalLoop=1;jettySize=auto;html=1;exitX=1;exitY=0.5;exitDx=0;exitDy=0;entryX=0;entryY=0.5;entryDx=0;entryDy=0;" edge="1" parent="1" source="KkFiw05WbOxU5-AoPjwO-2" target="KkFiw05WbOxU5-AoPjwO-3">
          <mxGeometry relative="1" as="geometry" />
        </mxCell>
        <mxCell id="KkFiw05WbOxU5-AoPjwO-2" value="&lt;div&gt;Front&lt;/div&gt;&lt;div&gt;line detector&lt;/div&gt;&lt;div&gt;&lt;br&gt;&lt;/div&gt;&lt;div&gt;STM32F446RE&lt;br&gt;&lt;/div&gt;" style="rounded=1;whiteSpace=wrap;html=1;fillColor=#fff2cc;strokeColor=#d6b656;" vertex="1" parent="1">
          <mxGeometry x="120" y="230" width="120" height="60" as="geometry" />
        </mxCell>
        <mxCell id="KkFiw05WbOxU5-AoPjwO-18" style="edgeStyle=orthogonalEdgeStyle;rounded=0;orthogonalLoop=1;jettySize=auto;html=1;exitX=0.5;exitY=1;exitDx=0;exitDy=0;entryX=0.5;entryY=0;entryDx=0;entryDy=0;" edge="1" parent="1" source="KkFiw05WbOxU5-AoPjwO-3" target="KkFiw05WbOxU5-AoPjwO-6">
          <mxGeometry relative="1" as="geometry" />
        </mxCell>
        <mxCell id="KkFiw05WbOxU5-AoPjwO-3" value="&lt;div&gt;Control panel&lt;/div&gt;&lt;div&gt;&lt;br&gt;&lt;/div&gt;&lt;div&gt;STM32F446RE&lt;br&gt;&lt;/div&gt;" style="rounded=1;whiteSpace=wrap;html=1;fillColor=#d5e8d4;strokeColor=#82b366;" vertex="1" parent="1">
          <mxGeometry x="300" y="220" width="160" height="80" as="geometry" />
        </mxCell>
        <mxCell id="KkFiw05WbOxU5-AoPjwO-25" style="edgeStyle=orthogonalEdgeStyle;rounded=0;orthogonalLoop=1;jettySize=auto;html=1;exitX=0;exitY=0.5;exitDx=0;exitDy=0;entryX=1;entryY=0.75;entryDx=0;entryDy=0;" edge="1" parent="1" source="KkFiw05WbOxU5-AoPjwO-4" target="KkFiw05WbOxU5-AoPjwO-3">
          <mxGeometry relative="1" as="geometry" />
        </mxCell>
        <mxCell id="KkFiw05WbOxU5-AoPjwO-4" value="&lt;div&gt;Rear&lt;br&gt;&lt;/div&gt;&lt;div&gt;distance sensor&lt;/div&gt;&lt;div&gt;&lt;br&gt;&lt;/div&gt;&lt;div&gt;STM32F030K6T6&lt;br&gt;&lt;/div&gt;" style="rounded=1;whiteSpace=wrap;html=1;fillColor=#f5f5f5;fontColor=#333333;strokeColor=#666666;" vertex="1" parent="1">
          <mxGeometry x="520" y="310" width="120" height="60" as="geometry" />
        </mxCell>
        <mxCell id="KkFiw05WbOxU5-AoPjwO-19" style="edgeStyle=orthogonalEdgeStyle;rounded=0;orthogonalLoop=1;jettySize=auto;html=1;exitX=0.5;exitY=1;exitDx=0;exitDy=0;entryX=0.5;entryY=0;entryDx=0;entryDy=0;" edge="1" parent="1" source="KkFiw05WbOxU5-AoPjwO-6" target="KkFiw05WbOxU5-AoPjwO-10">
          <mxGeometry relative="1" as="geometry" />
        </mxCell>
        <mxCell id="KkFiw05WbOxU5-AoPjwO-28" style="edgeStyle=orthogonalEdgeStyle;rounded=0;orthogonalLoop=1;jettySize=auto;html=1;exitX=0;exitY=0.75;exitDx=0;exitDy=0;entryX=0.5;entryY=0;entryDx=0;entryDy=0;" edge="1" parent="1" source="KkFiw05WbOxU5-AoPjwO-6" target="KkFiw05WbOxU5-AoPjwO-11">
          <mxGeometry relative="1" as="geometry" />
        </mxCell>
        <mxCell id="KkFiw05WbOxU5-AoPjwO-29" style="edgeStyle=orthogonalEdgeStyle;rounded=0;orthogonalLoop=1;jettySize=auto;html=1;exitX=1;exitY=0.75;exitDx=0;exitDy=0;entryX=0.5;entryY=0;entryDx=0;entryDy=0;" edge="1" parent="1" source="KkFiw05WbOxU5-AoPjwO-6" target="KkFiw05WbOxU5-AoPjwO-12">
          <mxGeometry relative="1" as="geometry" />
        </mxCell>
        <mxCell id="KkFiw05WbOxU5-AoPjwO-6" value="&lt;div&gt;Motor controller&lt;/div&gt;&lt;div&gt;&lt;br&gt;&lt;/div&gt;&lt;div&gt;STM32F446RE&lt;br&gt;&lt;/div&gt;" style="rounded=1;whiteSpace=wrap;html=1;fillColor=#dae8fc;strokeColor=#6c8ebf;" vertex="1" parent="1">
          <mxGeometry x="320" y="340" width="120" height="60" as="geometry" />
        </mxCell>
        <mxCell id="KkFiw05WbOxU5-AoPjwO-23" style="edgeStyle=orthogonalEdgeStyle;rounded=0;orthogonalLoop=1;jettySize=auto;html=1;exitX=1;exitY=0.5;exitDx=0;exitDy=0;entryX=0;entryY=0.75;entryDx=0;entryDy=0;" edge="1" parent="1" source="KkFiw05WbOxU5-AoPjwO-7" target="KkFiw05WbOxU5-AoPjwO-3">
          <mxGeometry relative="1" as="geometry" />
        </mxCell>
        <mxCell id="KkFiw05WbOxU5-AoPjwO-7" value="&lt;div&gt;Front&lt;/div&gt;&lt;div&gt;distance sensor&lt;/div&gt;&lt;div&gt;&lt;br&gt;&lt;/div&gt;&lt;div&gt;STM32F030K6T6&lt;br&gt;&lt;/div&gt;" style="rounded=1;whiteSpace=wrap;html=1;fillColor=#f5f5f5;strokeColor=#666666;fontColor=#333333;" vertex="1" parent="1">
          <mxGeometry x="120" y="310" width="120" height="60" as="geometry" />
        </mxCell>
        <mxCell id="KkFiw05WbOxU5-AoPjwO-17" style="edgeStyle=orthogonalEdgeStyle;rounded=0;orthogonalLoop=1;jettySize=auto;html=1;exitX=0.5;exitY=1;exitDx=0;exitDy=0;entryX=0.5;entryY=0;entryDx=0;entryDy=0;" edge="1" parent="1" source="KkFiw05WbOxU5-AoPjwO-9" target="KkFiw05WbOxU5-AoPjwO-3">
          <mxGeometry relative="1" as="geometry" />
        </mxCell>
        <mxCell id="KkFiw05WbOxU5-AoPjwO-9" value="&lt;div&gt;Monitor app&lt;/div&gt;&lt;div&gt;(optional trajectory planner)&lt;/div&gt;&lt;div&gt;&lt;br&gt;&lt;/div&gt;&lt;div&gt;Raspberry Pi4&lt;br&gt;&lt;/div&gt;" style="rounded=1;whiteSpace=wrap;html=1;fillColor=#b1ddf0;strokeColor=#10739e;" vertex="1" parent="1">
          <mxGeometry x="300" y="100" width="160" height="80" as="geometry" />
        </mxCell>
        <mxCell id="KkFiw05WbOxU5-AoPjwO-10" value="Drive motor" style="ellipse;whiteSpace=wrap;html=1;" vertex="1" parent="1">
          <mxGeometry x="330" y="420" width="100" height="100" as="geometry" />
        </mxCell>
        <mxCell id="KkFiw05WbOxU5-AoPjwO-11" value="&lt;div&gt;Front&lt;/div&gt;&lt;div&gt;steering servo&lt;br&gt;&lt;/div&gt;" style="ellipse;whiteSpace=wrap;html=1;fillColor=#e1d5e7;strokeColor=#9673a6;" vertex="1" parent="1">
          <mxGeometry x="130" y="420" width="100" height="100" as="geometry" />
        </mxCell>
        <mxCell id="KkFiw05WbOxU5-AoPjwO-12" value="&lt;div&gt;Rear&lt;/div&gt;&lt;div&gt;steering servo&lt;br&gt;&lt;/div&gt;" style="ellipse;whiteSpace=wrap;html=1;fillColor=#e1d5e7;strokeColor=#9673a6;" vertex="1" parent="1">
          <mxGeometry x="530" y="420" width="100" height="100" as="geometry" />
        </mxCell>
        <mxCell id="KkFiw05WbOxU5-AoPjwO-30" style="edgeStyle=orthogonalEdgeStyle;rounded=0;orthogonalLoop=1;jettySize=auto;html=1;exitX=0.5;exitY=0;exitDx=0;exitDy=0;entryX=0.75;entryY=1;entryDx=0;entryDy=0;" edge="1" parent="1" source="KkFiw05WbOxU5-AoPjwO-13" target="KkFiw05WbOxU5-AoPjwO-6">
          <mxGeometry relative="1" as="geometry" />
        </mxCell>
        <mxCell id="KkFiw05WbOxU5-AoPjwO-13" value="&lt;div&gt;Speed&lt;/div&gt;&lt;div&gt;sensor&lt;/div&gt;" style="ellipse;whiteSpace=wrap;html=1;aspect=fixed;fillColor=#f8cecc;strokeColor=#b85450;" vertex="1" parent="1">
          <mxGeometry x="440" y="442.5" width="55" height="55" as="geometry" />
        </mxCell>
        <mxCell id="KkFiw05WbOxU5-AoPjwO-31" style="edgeStyle=orthogonalEdgeStyle;rounded=0;orthogonalLoop=1;jettySize=auto;html=1;exitX=0.5;exitY=0;exitDx=0;exitDy=0;entryX=0.25;entryY=1;entryDx=0;entryDy=0;" edge="1" parent="1" source="KkFiw05WbOxU5-AoPjwO-14" target="KkFiw05WbOxU5-AoPjwO-6">
          <mxGeometry relative="1" as="geometry" />
        </mxCell>
        <mxCell id="KkFiw05WbOxU5-AoPjwO-14" value="&lt;div&gt;RC&lt;/div&gt;&lt;div&gt;receiver&lt;br&gt;&lt;/div&gt;" style="ellipse;whiteSpace=wrap;html=1;aspect=fixed;fillColor=#ffe6cc;strokeColor=#d79b00;" vertex="1" parent="1">
          <mxGeometry x="260" y="442.5" width="60" height="60" as="geometry" />
        </mxCell>
        <mxCell id="KkFiw05WbOxU5-AoPjwO-34" value="" style="endArrow=none;html=1;rounded=0;entryX=0;entryY=0.5;entryDx=0;entryDy=0;exitX=1;exitY=0.5;exitDx=0;exitDy=0;strokeWidth=5;" edge="1" parent="1" source="KkFiw05WbOxU5-AoPjwO-10" target="KkFiw05WbOxU5-AoPjwO-13">
          <mxGeometry width="50" height="50" relative="1" as="geometry">
            <mxPoint x="390" y="350" as="sourcePoint" />
            <mxPoint x="440" y="300" as="targetPoint" />
          </mxGeometry>
        </mxCell>
      </root>
    </mxGraphModel>
  </diagram>
</mxfile>
